<?xml version="1.0" encoding="UTF-8" standalone="no"?>
<svg width="18px" height="24px" viewBox="0 0 18 24" version="1.1" xmlns="http://www.w3.org/2000/svg" xmlns:xlink="http://www.w3.org/1999/xlink" xmlns:sketch="http://www.bohemiancoding.com/sketch/ns">
    <!-- Generator: Sketch 3.3.2 (12043) - http://www.bohemiancoding.com/sketch -->
    <title>file</title>
    <desc>Created with Sketch.</desc>
    <defs></defs>
    <g id="Page-1" stroke="none" stroke-width="1" fill="none" fill-rule="evenodd" sketch:type="MSPage">
        <path d="M10,8 L10,2 L2,2 L2,22 L16,22 L16,8 L10,8 Z M11.4142136,0.585786438 L17.4142136,6.58578644 L18,7.17157288 L18,8 L18,22 L18,24 L16,24 L2,24 L0,24 L0,22 L0,2 L0,0 L2,0 L10,0 L10.8284271,0 L11.4142136,0.585786438 Z M5.5,12 L10.5,12 L11,12 L11,11 L10.5,11 L5.5,11 L5,11 L5,12 L5.5,12 Z M5.5,15 L12.5,15 L13,15 L13,14 L12.5,14 L5.5,14 L5,14 L5,15 L5.5,15 Z M5.5,18 L10.5,18 L11,18 L11,17 L10.5,17 L5.5,17 L5,17 L5,18 L5.5,18 Z" id="file" fill="#979797" sketch:type="MSShapeGroup"></path>
    </g>
</svg>