<?xml version="1.0" encoding="UTF-8" standalone="no"?>
<svg width="49px" height="49px" viewBox="0 0 49 49" version="1.1" xmlns="http://www.w3.org/2000/svg" xmlns:xlink="http://www.w3.org/1999/xlink" xmlns:sketch="http://www.bohemiancoding.com/sketch/ns">
    <!-- Generator: Sketch 3.3.2 (12043) - http://www.bohemiancoding.com/sketch -->
    <title>flex-media</title>
    <desc>Created with Sketch.</desc>
    <defs></defs>
    <g id="Page-1" stroke="none" stroke-width="1" fill="none" fill-rule="evenodd" sketch:type="MSPage">
        <path d="M24.51,13.874 C22.981,13.908 21.88,13.282 20.678,12.475 C19.284,11.534 9.546,4.963 5.176,2.06 C2.049,-0.005 0.446,-0.153 0.446,4.084 L0.446,45.606 C0.446,47.978 1.675,49.806 4.073,47.916 C5.411,46.855 6.929,45.651 8.174,44.663 C10.781,42.347 10.407,38.963 10.407,38.963 L10.407,35.816 C10.404,35.709 10.196,31.272 13.023,33.399 C15.283,34.932 21.232,38.969 21.3,39.016 C21.454,39.11 22.674,39.865 24.51,39.86 C26.346,39.866 27.567,39.111 27.72,39.016 C27.789,38.969 33.738,34.932 35.998,33.399 C38.825,31.271 38.617,35.708 38.614,35.816 L38.614,38.963 C38.614,38.963 38.24,42.347 40.847,44.663 C42.091,45.651 43.61,46.855 44.948,47.916 C47.345,49.806 48.575,47.978 48.574,45.606 L48.574,4.083 C48.574,-0.153 46.971,-0.006 43.844,2.059 C39.474,4.962 29.735,11.533 28.342,12.474 C27.14,13.281 26.04,13.908 24.51,13.874 L24.51,13.874 L24.51,13.874 Z M24.51,30.396 C22.918,30.354 21.837,29.653 21.837,29.653 C21.837,29.653 12.729,23.462 12.713,23.462 C10.36,21.805 10.7,19.673 10.7,19.673 L10.701,16.853 C10.701,16.853 10.489,14.713 12.12,15.92 C15.845,18.453 21.757,22.472 21.757,22.472 C21.757,22.472 22.96,23.233 24.509,23.345 C26.058,23.233 27.261,22.472 27.261,22.472 C27.261,22.472 33.173,18.453 36.898,15.92 C38.529,14.713 38.317,16.853 38.317,16.853 L38.318,19.673 C38.318,19.673 38.658,21.805 36.305,23.462 C36.289,23.462 27.181,29.653 27.181,29.653 C27.181,29.653 26.103,30.354 24.51,30.396 L24.51,30.396 Z" id="flex-media" fill="#C73633" sketch:type="MSShapeGroup"></path>
    </g>
</svg>